<?xml version="1.0" encoding="utf-8"?>
<!-- Generator: Adobe Illustrator 16.0.0, SVG Export Plug-In . SVG Version: 6.00 Build 0)  -->
<!DOCTYPE svg PUBLIC "-//W3C//DTD SVG 1.1//EN" "http://www.w3.org/Graphics/SVG/1.1/DTD/svg11.dtd">
<svg version="1.1" id="Capa_1" xmlns="http://www.w3.org/2000/svg" xmlns:xlink="http://www.w3.org/1999/xlink" x="0px" y="0px"
	 width="249.006px" height="57.646px" viewBox="0 0 249.006 57.646" enable-background="new 0 0 249.006 57.646"
	 xml:space="preserve">
<path fill="#46B8A9" d="M48.683,51.764L30.713,7.031C30.415,6.224,29.885,5.82,29.12,5.82h-5.354c-0.68,0-1.209,0.403-1.593,1.211
	L4.205,51.764c-0.384,0.893-0.106,1.338,0.828,1.338h7.009c0.766,0,1.296-0.382,1.593-1.146l5.715-15.058l0,0l0.291-0.775h-0.008
	l1.511-4.007l0.029-0.077l5.271-13.983l0.576,1.556l0.205,0.553l5.9,15.931H33.12l0.437,1.181l0,0l5.695,14.681
	c0.297,0.765,0.828,1.146,1.593,1.146h6.946c0.424,0,0.731-0.115,0.924-0.35C48.905,52.519,48.896,52.189,48.683,51.764z"/>
<path fill="#46B8A9" d="M84.211,5.819H53.688c-0.808,0-1.211,0.426-1.211,1.274v44.733c0,0.851,0.403,1.274,1.211,1.274h6.818
	c0.849,0,1.273-0.424,1.273-1.274v-5.155V35.45v-2.257h16.153c1.042,0,1.563-0.426,1.563-1.275v-6.053
	c0-0.85-0.521-1.275-1.563-1.275H61.78V14.55h22.431c0.85,0,1.274-0.425,1.274-1.274V7.094C85.485,6.245,85.061,5.819,84.211,5.819z
	"/>
<g>
	<path fill="#46B8A9" d="M114.321,31.5v-6.053c0-0.85-0.521-1.275-1.564-1.275H93.138v8.604h19.619
		C113.8,32.775,114.321,32.35,114.321,31.5z"/>
	<path fill="#46B8A9" d="M120.294,13.275V7.094c0-0.848-0.475-1.273-1.422-1.273H93.138v8.73h25.734
		C119.819,14.551,120.294,14.125,120.294,13.275z"/>
	<path fill="#46B8A9" d="M119.511,44.436H93.138v8.666h26.373c0.996,0,1.494-0.424,1.494-1.273v-6.117
		C121.005,44.861,120.507,44.436,119.511,44.436z"/>
</g>
<g>
	<path fill="#46B8A9" d="M128.179,45.264c-0.341-0.383-0.596-0.765-0.765-1.147c-0.17-0.382-0.021-0.807,0.445-1.274l4.27-4.206
		c0.383-0.339,0.754-0.456,1.115-0.35s0.732,0.329,1.115,0.669c0.638,0.637,1.348,1.285,2.135,1.943
		c0.785,0.659,1.635,1.253,2.549,1.784c0.913,0.531,1.9,0.956,2.963,1.274s2.188,0.478,3.378,0.478c1.274,0,2.399-0.169,3.377-0.51
		c0.978-0.339,1.816-0.796,2.517-1.37c0.701-0.573,1.232-1.231,1.594-1.975c0.36-0.743,0.541-1.519,0.541-2.326
		c0-1.02-0.309-1.88-0.924-2.581c-0.616-0.701-1.369-1.295-2.262-1.784c-0.893-0.487-1.859-0.892-2.899-1.211
		c-1.042-0.318-1.986-0.583-2.836-0.796c-5.14-1.529-9.06-3.409-11.757-5.64c-2.698-2.23-4.046-5.15-4.046-8.762
		c0-1.953,0.414-3.738,1.243-5.353c0.828-1.614,1.996-3.005,3.504-4.174c1.508-1.168,3.324-2.071,5.448-2.708
		c2.124-0.638,4.46-0.956,7.01-0.956c2.804,0,5.489,0.659,8.061,1.976c2.569,1.317,4.812,2.931,6.723,4.843
		c0.765,0.808,0.743,1.636-0.063,2.485l-3.505,3.759c-0.425,0.383-0.828,0.5-1.21,0.351c-0.383-0.148-0.787-0.392-1.211-0.732
		c-0.51-0.424-1.095-0.893-1.753-1.402c-0.659-0.51-1.381-0.987-2.167-1.434s-1.614-0.817-2.484-1.115
		c-0.871-0.297-1.774-0.445-2.709-0.445c-0.807,0-1.646,0.063-2.517,0.19c-0.871,0.128-1.657,0.373-2.357,0.733
		c-0.701,0.361-1.286,0.871-1.753,1.529c-0.468,0.659-0.701,1.54-0.701,2.645c0,0.808,0.224,1.508,0.67,2.103
		c0.445,0.596,1.083,1.115,1.912,1.562c0.828,0.445,1.805,0.86,2.931,1.242c1.125,0.383,2.368,0.765,3.728,1.147
		c2.166,0.637,4.205,1.349,6.117,2.134c1.912,0.787,3.578,1.753,5.002,2.899c1.424,1.147,2.559,2.508,3.41,4.079
		c0.849,1.571,1.273,3.463,1.273,5.671c0,2.209-0.488,4.217-1.465,6.021c-0.979,1.807-2.284,3.346-3.92,4.62
		c-1.635,1.274-3.525,2.252-5.67,2.931c-2.146,0.68-4.365,1.021-6.66,1.021c-3.313,0-6.499-0.723-9.558-2.167
		C132.958,49.491,130.346,47.6,128.179,45.264z"/>
</g>
<g>
	<path fill="#46B8A9" d="M172.542,17.181V8.067c0-0.182,0.077-0.273,0.233-0.273h1.264c0.148,0,0.223,0.092,0.223,0.273v9.113
		c0,0.173-0.074,0.26-0.223,0.26h-1.264C172.619,17.44,172.542,17.354,172.542,17.181z"/>
	<path fill="#46B8A9" d="M177.059,11.058c0.116,0,0.204,0.021,0.263,0.064c0.059,0.044,0.103,0.104,0.134,0.183
		s0.055,0.167,0.07,0.267s0.035,0.206,0.059,0.318c0.18-0.226,0.422-0.434,0.727-0.624c0.304-0.19,0.646-0.286,1.029-0.286
		c0.366,0,0.689,0.064,0.971,0.195c0.281,0.13,0.519,0.308,0.714,0.532c0.194,0.226,0.343,0.497,0.444,0.813
		c0.102,0.316,0.152,0.661,0.152,1.034v3.575c0,0.121-0.023,0.203-0.07,0.246c-0.047,0.044-0.117,0.065-0.211,0.065h-1.076
		c-0.125,0-0.201-0.02-0.229-0.059s-0.041-0.119-0.041-0.24v-3.289c0-0.355-0.102-0.639-0.304-0.852
		c-0.203-0.212-0.456-0.318-0.761-0.318c-0.125,0-0.256,0.03-0.392,0.091c-0.137,0.061-0.263,0.141-0.38,0.24
		s-0.217,0.219-0.299,0.357s-0.135,0.286-0.158,0.442v3.341c0,0.113-0.02,0.188-0.059,0.228s-0.117,0.059-0.233,0.059h-1.054
		c-0.117,0-0.192-0.021-0.228-0.065c-0.035-0.043-0.053-0.116-0.053-0.221v-5.707c0-0.26,0.117-0.39,0.351-0.39H177.059z"/>
	<path fill="#46B8A9" d="M183.329,9.303c0-0.226,0.12-0.352,0.362-0.377l0.866-0.144c0.016-0.009,0.042-0.013,0.082-0.013
		c0.108,0,0.183,0.037,0.222,0.11c0.039,0.074,0.059,0.167,0.059,0.279v1.898h0.702c0.094,0,0.17,0.032,0.229,0.098
		c0.058,0.064,0.087,0.158,0.087,0.279v0.715c0,0.139-0.029,0.24-0.087,0.306c-0.059,0.064-0.135,0.098-0.229,0.098h-0.702v4.511
		c0,0.121-0.023,0.215-0.07,0.279c-0.047,0.065-0.129,0.098-0.245,0.098h-0.983c-0.117,0-0.195-0.032-0.233-0.098
		c-0.039-0.064-0.059-0.158-0.059-0.279v-4.511h-0.315c-0.227,0-0.34-0.135-0.34-0.403v-0.715c0-0.251,0.113-0.377,0.34-0.377h0.315
		V9.303z"/>
	<path fill="#46B8A9" d="M189.693,16.05c0.172,0.009,0.34-0.018,0.504-0.078c0.163-0.061,0.323-0.139,0.479-0.234
		c0.063-0.034,0.121-0.073,0.176-0.117c0.055-0.043,0.105-0.064,0.152-0.064c0.07,0,0.129,0.039,0.176,0.117l0.433,0.767
		c0.039,0.069,0.059,0.126,0.059,0.169c0,0.069-0.02,0.128-0.059,0.176s-0.081,0.093-0.128,0.137
		c-0.25,0.208-0.521,0.372-0.814,0.493c-0.292,0.122-0.605,0.183-0.941,0.183c-0.405,0-0.789-0.087-1.152-0.26
		c-0.363-0.174-0.678-0.41-0.947-0.709s-0.484-0.652-0.644-1.06c-0.16-0.407-0.24-0.841-0.24-1.3c0-0.45,0.078-0.878,0.234-1.28
		c0.155-0.403,0.366-0.759,0.632-1.066c0.265-0.308,0.573-0.55,0.924-0.728c0.352-0.178,0.726-0.267,1.123-0.267
		c0.375,0,0.729,0.078,1.064,0.233c0.336,0.156,0.631,0.369,0.884,0.638s0.452,0.583,0.597,0.942s0.217,0.743,0.217,1.15
		c0,0.338-0.025,0.583-0.076,0.734s-0.162,0.228-0.334,0.228h-3.639c0.016,0.19,0.066,0.359,0.152,0.507s0.191,0.273,0.316,0.377
		c0.125,0.104,0.264,0.182,0.415,0.234C189.407,16.023,189.553,16.05,189.693,16.05z M188.371,13.593h2.516
		c-0.016-0.326-0.143-0.604-0.38-0.836c-0.238-0.231-0.532-0.348-0.884-0.348c-0.141,0-0.28,0.03-0.421,0.09
		c-0.14,0.061-0.269,0.144-0.386,0.251s-0.215,0.233-0.293,0.38C188.445,13.275,188.395,13.43,188.371,13.593z"/>
	<path fill="#46B8A9" d="M195.053,11.422c0.007,0.043,0.027,0.128,0.059,0.253c0.03,0.126,0.05,0.21,0.058,0.254
		c0.07-0.104,0.154-0.213,0.252-0.325c0.097-0.112,0.208-0.215,0.333-0.306s0.26-0.167,0.404-0.228s0.302-0.091,0.474-0.091
		c0.038,0,0.075,0,0.11,0s0.072,0.005,0.111,0.013c0.109,0.009,0.234,0.041,0.375,0.098s0.273,0.121,0.397,0.195
		c0.125,0.073,0.229,0.151,0.315,0.233c0.086,0.083,0.129,0.158,0.129,0.228c0,0.053-0.02,0.113-0.059,0.183l-0.467,0.845
		c-0.07,0.121-0.152,0.182-0.246,0.182c-0.031,0-0.078-0.015-0.141-0.045s-0.129-0.067-0.199-0.11
		c-0.109-0.087-0.205-0.147-0.287-0.183c-0.081-0.034-0.177-0.052-0.286-0.052c-0.171,0-0.325,0.037-0.462,0.11
		c-0.137,0.074-0.252,0.171-0.346,0.293c-0.094,0.121-0.166,0.258-0.216,0.409c-0.051,0.151-0.076,0.301-0.076,0.448v3.289
		c0,0.217-0.105,0.325-0.315,0.325h-0.972c-0.202,0-0.304-0.108-0.304-0.325v-5.693c0-0.113,0.031-0.197,0.094-0.254
		s0.132-0.085,0.21-0.085h0.749c0.094,0,0.162,0.035,0.205,0.104S195.029,11.335,195.053,11.422z"/>
	<path fill="#46B8A9" d="M200.224,11.058c0.116,0,0.204,0.021,0.263,0.064c0.059,0.044,0.104,0.104,0.135,0.183
		s0.055,0.167,0.07,0.267s0.035,0.206,0.059,0.318c0.18-0.226,0.422-0.434,0.726-0.624s0.647-0.286,1.029-0.286
		c0.366,0,0.69,0.064,0.972,0.195c0.28,0.13,0.518,0.308,0.713,0.532c0.195,0.226,0.344,0.497,0.445,0.813
		c0.102,0.316,0.152,0.661,0.152,1.034v3.575c0,0.121-0.023,0.203-0.07,0.246c-0.047,0.044-0.117,0.065-0.211,0.065h-1.076
		c-0.125,0-0.201-0.02-0.229-0.059s-0.041-0.119-0.041-0.24v-3.289c0-0.355-0.102-0.639-0.305-0.852
		c-0.203-0.212-0.455-0.318-0.76-0.318c-0.125,0-0.256,0.03-0.393,0.091s-0.263,0.141-0.38,0.24s-0.216,0.219-0.298,0.357
		s-0.135,0.286-0.158,0.442v3.341c0,0.113-0.02,0.188-0.059,0.228s-0.117,0.059-0.234,0.059h-1.053
		c-0.117,0-0.193-0.021-0.229-0.065c-0.035-0.043-0.053-0.116-0.053-0.221v-5.707c0-0.26,0.117-0.39,0.352-0.39H200.224z"/>
	<path fill="#46B8A9" d="M210.438,17.09c-0.016-0.087-0.027-0.158-0.035-0.215s-0.02-0.128-0.035-0.215
		c-0.07,0.113-0.147,0.226-0.233,0.338c-0.086,0.113-0.187,0.211-0.304,0.293s-0.254,0.149-0.41,0.201s-0.344,0.078-0.562,0.078
		h-0.023c-0.413,0-0.794-0.084-1.141-0.253c-0.347-0.17-0.646-0.403-0.896-0.702s-0.444-0.648-0.584-1.047
		c-0.141-0.398-0.211-0.832-0.211-1.3s0.068-0.903,0.205-1.307c0.136-0.403,0.328-0.752,0.578-1.047
		c0.25-0.294,0.549-0.526,0.896-0.695s0.731-0.253,1.152-0.253c0.413,0,0.735,0.091,0.966,0.272c0.229,0.183,0.434,0.398,0.613,0.65
		l0.117-0.494c0.031-0.147,0.066-0.245,0.105-0.293c0.039-0.047,0.113-0.071,0.223-0.071l0.654,0.026
		c0.086,0,0.164,0.032,0.234,0.098c0.07,0.064,0.105,0.149,0.105,0.253v5.707c0,0.104-0.035,0.185-0.105,0.24
		c-0.07,0.057-0.148,0.085-0.234,0.085h-0.748c-0.117,0-0.197-0.032-0.24-0.098C210.482,17.278,210.453,17.193,210.438,17.09z
		 M207.524,14.281c0,0.243,0.033,0.468,0.1,0.676s0.161,0.391,0.286,0.547c0.125,0.155,0.273,0.277,0.445,0.363
		c0.172,0.087,0.363,0.13,0.573,0.13c0.437,0,0.782-0.162,1.035-0.487s0.38-0.729,0.38-1.216c0-0.233-0.031-0.457-0.093-0.669
		c-0.063-0.212-0.156-0.398-0.281-0.559c-0.124-0.161-0.272-0.286-0.444-0.378c-0.172-0.091-0.371-0.136-0.597-0.136
		c-0.21,0-0.403,0.045-0.579,0.136c-0.176,0.092-0.324,0.217-0.445,0.378c-0.121,0.16-0.214,0.344-0.28,0.552
		S207.524,14.048,207.524,14.281z"/>
	<path fill="#46B8A9" d="M213.363,9.303c0-0.226,0.12-0.352,0.362-0.377l0.866-0.144c0.016-0.009,0.042-0.013,0.082-0.013
		c0.108,0,0.183,0.037,0.222,0.11c0.039,0.074,0.059,0.167,0.059,0.279v1.898h0.702c0.094,0,0.17,0.032,0.229,0.098
		c0.058,0.064,0.087,0.158,0.087,0.279v0.715c0,0.139-0.029,0.24-0.087,0.306c-0.059,0.064-0.135,0.098-0.229,0.098h-0.702v4.511
		c0,0.121-0.023,0.215-0.07,0.279c-0.047,0.065-0.129,0.098-0.245,0.098h-0.983c-0.117,0-0.195-0.032-0.233-0.098
		c-0.039-0.064-0.059-0.158-0.059-0.279v-4.511h-0.316c-0.227,0-0.34-0.135-0.34-0.403v-0.715c0-0.251,0.113-0.377,0.34-0.377h0.316
		V9.303z"/>
	<path fill="#46B8A9" d="M216.85,9.159c0-0.277,0.087-0.514,0.263-0.708c0.175-0.195,0.388-0.293,0.638-0.293
		c0.258,0,0.472,0.098,0.644,0.293c0.171,0.194,0.257,0.431,0.257,0.708s-0.086,0.512-0.257,0.702
		c-0.172,0.19-0.386,0.286-0.644,0.286c-0.25,0-0.463-0.096-0.638-0.286C216.937,9.671,216.85,9.437,216.85,9.159z M218.58,11.369
		v5.772c0,0.199-0.098,0.299-0.292,0.299h-1.019c-0.179,0-0.269-0.1-0.269-0.299v-5.772c0-0.095,0.023-0.171,0.07-0.228
		c0.047-0.056,0.112-0.084,0.198-0.084h1.019c0.07,0,0.136,0.028,0.198,0.084C218.549,11.198,218.58,11.274,218.58,11.369z"/>
	<path fill="#46B8A9" d="M219.797,14.269c0-0.459,0.078-0.893,0.234-1.3s0.373-0.763,0.649-1.066
		c0.276-0.303,0.599-0.541,0.966-0.715c0.365-0.173,0.76-0.26,1.182-0.26c0.421,0,0.814,0.087,1.182,0.26
		c0.366,0.174,0.686,0.412,0.959,0.715c0.273,0.304,0.489,0.659,0.649,1.066c0.159,0.407,0.239,0.841,0.239,1.3
		s-0.08,0.891-0.239,1.293c-0.16,0.403-0.376,0.755-0.649,1.054s-0.593,0.535-0.959,0.708c-0.367,0.174-0.761,0.26-1.182,0.26
		c-0.422,0-0.816-0.086-1.182-0.26c-0.367-0.173-0.689-0.409-0.966-0.708s-0.493-0.65-0.649-1.054
		C219.875,15.159,219.797,14.728,219.797,14.269z M221.354,14.281c0,0.234,0.037,0.453,0.111,0.656
		c0.074,0.204,0.178,0.384,0.31,0.54c0.133,0.156,0.288,0.277,0.468,0.364c0.18,0.086,0.375,0.13,0.586,0.13
		c0.21,0,0.404-0.044,0.584-0.13c0.18-0.087,0.336-0.208,0.469-0.364s0.238-0.336,0.315-0.54c0.078-0.203,0.117-0.422,0.117-0.656
		c0-0.233-0.039-0.452-0.117-0.656c-0.077-0.203-0.183-0.384-0.315-0.54c-0.133-0.155-0.289-0.279-0.469-0.37
		s-0.374-0.137-0.584-0.137c-0.211,0-0.406,0.046-0.586,0.137s-0.335,0.215-0.468,0.37c-0.132,0.156-0.235,0.337-0.31,0.54
		C221.391,13.829,221.354,14.048,221.354,14.281z"/>
	<path fill="#46B8A9" d="M228.058,11.058c0.116,0,0.204,0.021,0.263,0.064c0.059,0.044,0.104,0.104,0.135,0.183
		s0.055,0.167,0.07,0.267s0.035,0.206,0.059,0.318c0.18-0.226,0.422-0.434,0.726-0.624s0.647-0.286,1.029-0.286
		c0.366,0,0.69,0.064,0.972,0.195c0.28,0.13,0.518,0.308,0.713,0.532c0.195,0.226,0.344,0.497,0.445,0.813
		c0.102,0.316,0.152,0.661,0.152,1.034v3.575c0,0.121-0.023,0.203-0.07,0.246c-0.047,0.044-0.117,0.065-0.211,0.065h-1.076
		c-0.125,0-0.201-0.02-0.229-0.059s-0.041-0.119-0.041-0.24v-3.289c0-0.355-0.102-0.639-0.305-0.852
		c-0.203-0.212-0.455-0.318-0.76-0.318c-0.125,0-0.256,0.03-0.393,0.091s-0.263,0.141-0.38,0.24s-0.216,0.219-0.298,0.357
		s-0.135,0.286-0.158,0.442v3.341c0,0.113-0.02,0.188-0.059,0.228s-0.117,0.059-0.234,0.059h-1.053
		c-0.117,0-0.193-0.021-0.229-0.065c-0.035-0.043-0.053-0.116-0.053-0.221v-5.707c0-0.26,0.117-0.39,0.352-0.39H228.058z"/>
	<path fill="#46B8A9" d="M238.283,17.09c-0.016-0.087-0.027-0.158-0.035-0.215s-0.02-0.128-0.035-0.215
		c-0.07,0.113-0.148,0.226-0.234,0.338c-0.086,0.113-0.187,0.211-0.304,0.293s-0.253,0.149-0.409,0.201s-0.344,0.078-0.563,0.078
		h-0.023c-0.413,0-0.793-0.084-1.141-0.253c-0.347-0.17-0.645-0.403-0.895-0.702s-0.445-0.648-0.585-1.047
		c-0.141-0.398-0.211-0.832-0.211-1.3s0.068-0.903,0.205-1.307c0.136-0.403,0.329-0.752,0.579-1.047
		c0.25-0.294,0.548-0.526,0.895-0.695c0.348-0.169,0.732-0.253,1.152-0.253c0.414,0,0.736,0.091,0.966,0.272
		c0.229,0.183,0.435,0.398,0.614,0.65l0.117-0.494c0.031-0.147,0.066-0.245,0.105-0.293c0.039-0.047,0.113-0.071,0.223-0.071
		l0.654,0.026c0.086,0,0.164,0.032,0.234,0.098c0.07,0.064,0.105,0.149,0.105,0.253v5.707c0,0.104-0.035,0.185-0.105,0.24
		c-0.07,0.057-0.148,0.085-0.234,0.085h-0.748c-0.117,0-0.197-0.032-0.24-0.098C238.328,17.278,238.299,17.193,238.283,17.09z
		 M235.369,14.281c0,0.243,0.033,0.468,0.1,0.676s0.162,0.391,0.287,0.547c0.125,0.155,0.273,0.277,0.445,0.363
		c0.171,0.087,0.362,0.13,0.572,0.13c0.438,0,0.782-0.162,1.035-0.487c0.254-0.325,0.381-0.729,0.381-1.216
		c0-0.233-0.031-0.457-0.094-0.669s-0.156-0.398-0.281-0.559c-0.124-0.161-0.272-0.286-0.443-0.378
		c-0.172-0.091-0.371-0.136-0.598-0.136c-0.21,0-0.403,0.045-0.578,0.136c-0.176,0.092-0.324,0.217-0.445,0.378
		c-0.121,0.16-0.215,0.344-0.281,0.552S235.369,14.048,235.369,14.281z"/>
	<path fill="#46B8A9" d="M241.127,17.154V8.08c0-0.19,0.082-0.286,0.245-0.286h1.089c0.171,0,0.257,0.096,0.257,0.286v9.074
		c0,0.19-0.086,0.286-0.257,0.286h-1.089C241.209,17.44,241.127,17.345,241.127,17.154z"/>
</g>
<g>
	<path fill="#46B8A9" d="M172.542,33.181v-9.113c0-0.182,0.077-0.273,0.233-0.273h1.264c0.148,0,0.223,0.092,0.223,0.273v9.113
		c0,0.173-0.074,0.26-0.223,0.26h-1.264C172.619,33.44,172.542,33.354,172.542,33.181z"/>
	<path fill="#46B8A9" d="M177.059,27.058c0.116,0,0.204,0.021,0.263,0.064c0.059,0.044,0.103,0.104,0.134,0.183
		s0.055,0.167,0.07,0.267s0.035,0.206,0.059,0.318c0.18-0.226,0.422-0.434,0.727-0.624c0.304-0.19,0.646-0.286,1.029-0.286
		c0.366,0,0.689,0.064,0.971,0.195c0.281,0.13,0.519,0.308,0.714,0.532c0.194,0.226,0.343,0.497,0.444,0.813
		c0.102,0.316,0.152,0.661,0.152,1.034v3.575c0,0.121-0.023,0.203-0.07,0.246c-0.047,0.044-0.117,0.065-0.211,0.065h-1.076
		c-0.125,0-0.201-0.02-0.229-0.059s-0.041-0.119-0.041-0.24v-3.289c0-0.355-0.102-0.639-0.304-0.852
		c-0.203-0.212-0.456-0.318-0.761-0.318c-0.125,0-0.256,0.03-0.392,0.091c-0.137,0.061-0.263,0.141-0.38,0.24
		s-0.217,0.219-0.299,0.357s-0.135,0.286-0.158,0.442v3.341c0,0.113-0.02,0.188-0.059,0.228s-0.117,0.059-0.233,0.059h-1.054
		c-0.117,0-0.192-0.021-0.228-0.065c-0.035-0.043-0.053-0.116-0.053-0.221v-5.707c0-0.26,0.117-0.39,0.351-0.39H177.059z"/>
	<path fill="#46B8A9" d="M182.65,32.335c-0.016-0.025-0.023-0.068-0.023-0.13c0-0.025,0.004-0.056,0.012-0.091
		c0.008-0.034,0.031-0.064,0.07-0.091l0.714-0.637c0.022-0.044,0.065-0.065,0.128-0.065c0.047,0,0.109,0.03,0.188,0.091
		c0.148,0.139,0.316,0.291,0.504,0.455c0.187,0.165,0.4,0.247,0.643,0.247c0.266,0,0.447-0.063,0.545-0.188
		c0.098-0.125,0.146-0.271,0.146-0.436c0-0.095-0.034-0.18-0.104-0.253c-0.07-0.074-0.152-0.142-0.246-0.202
		s-0.189-0.11-0.287-0.149s-0.178-0.066-0.24-0.084c-0.686-0.199-1.18-0.457-1.479-0.773s-0.45-0.73-0.45-1.242
		c0-0.251,0.053-0.487,0.158-0.708c0.105-0.222,0.253-0.416,0.444-0.585c0.19-0.169,0.421-0.304,0.69-0.403s0.567-0.149,0.895-0.149
		c0.391,0,0.741,0.071,1.053,0.215c0.313,0.143,0.586,0.331,0.819,0.565c0.141,0.155,0.211,0.286,0.211,0.39
		c0,0.035-0.043,0.1-0.129,0.195s-0.181,0.19-0.286,0.286c-0.105,0.095-0.207,0.18-0.305,0.253c-0.098,0.074-0.162,0.11-0.193,0.11
		c-0.063,0-0.129-0.039-0.199-0.116c-0.109-0.104-0.237-0.206-0.385-0.306c-0.148-0.1-0.336-0.149-0.563-0.149
		c-0.148,0-0.287,0.03-0.415,0.091c-0.129,0.061-0.193,0.173-0.193,0.338c0,0.156,0.08,0.279,0.24,0.37
		c0.159,0.092,0.38,0.185,0.661,0.28c0.296,0.112,0.567,0.231,0.813,0.357c0.246,0.125,0.455,0.271,0.627,0.436
		c0.171,0.164,0.304,0.353,0.396,0.565c0.094,0.212,0.141,0.461,0.141,0.747c0,0.329-0.064,0.622-0.192,0.878
		c-0.129,0.256-0.303,0.468-0.521,0.637c-0.219,0.169-0.471,0.297-0.755,0.384c-0.285,0.086-0.579,0.13-0.884,0.13
		c-0.413,0-0.799-0.083-1.158-0.247c-0.358-0.165-0.662-0.398-0.912-0.702C182.74,32.535,182.682,32.431,182.65,32.335z"/>
	<path fill="#46B8A9" d="M192.807,33.44c-0.117,0-0.207-0.02-0.27-0.059s-0.109-0.093-0.141-0.162s-0.057-0.151-0.076-0.247
		s-0.041-0.199-0.064-0.313c-0.18,0.226-0.435,0.425-0.766,0.599c-0.332,0.173-0.689,0.26-1.071,0.26
		c-0.358,0-0.677-0.063-0.953-0.188c-0.277-0.126-0.509-0.304-0.696-0.533s-0.328-0.5-0.422-0.813
		c-0.093-0.312-0.14-0.654-0.14-1.027v-3.51c0-0.121,0.032-0.217,0.099-0.286s0.146-0.104,0.24-0.104h0.959
		c0.125,0,0.211,0.032,0.258,0.098c0.047,0.064,0.07,0.158,0.07,0.279v3.224c0,0.355,0.092,0.638,0.275,0.846
		s0.427,0.312,0.73,0.312c0.125,0,0.266-0.028,0.422-0.085c0.156-0.056,0.3-0.132,0.433-0.227c0.133-0.096,0.245-0.213,0.339-0.352
		s0.141-0.29,0.141-0.455v-3.275c0-0.243,0.113-0.364,0.34-0.364h0.947c0.109,0,0.193,0.034,0.252,0.104s0.088,0.156,0.088,0.261
		v5.629c0,0.26-0.121,0.39-0.363,0.39H192.807z"/>
	<path fill="#46B8A9" d="M196.281,27.422c0.008,0.043,0.027,0.128,0.059,0.253c0.031,0.126,0.051,0.21,0.059,0.254
		c0.07-0.104,0.154-0.213,0.252-0.325c0.097-0.112,0.208-0.215,0.332-0.306c0.125-0.091,0.26-0.167,0.404-0.228
		s0.303-0.091,0.475-0.091c0.038,0,0.075,0,0.11,0s0.072,0.005,0.111,0.013c0.108,0.009,0.233,0.041,0.374,0.098
		s0.273,0.121,0.398,0.195c0.125,0.073,0.229,0.151,0.315,0.233c0.086,0.083,0.129,0.158,0.129,0.228
		c0,0.053-0.02,0.113-0.059,0.183l-0.468,0.845c-0.07,0.121-0.152,0.182-0.246,0.182c-0.031,0-0.078-0.015-0.141-0.045
		s-0.129-0.067-0.199-0.11c-0.108-0.087-0.204-0.147-0.286-0.183c-0.081-0.034-0.177-0.052-0.286-0.052
		c-0.172,0-0.326,0.037-0.463,0.11c-0.137,0.074-0.251,0.171-0.345,0.293c-0.094,0.121-0.166,0.258-0.216,0.409
		c-0.051,0.151-0.076,0.301-0.076,0.448v3.289c0,0.217-0.105,0.325-0.316,0.325h-0.971c-0.203,0-0.305-0.108-0.305-0.325v-5.693
		c0-0.113,0.031-0.197,0.094-0.254s0.133-0.085,0.211-0.085h0.748c0.094,0,0.162,0.035,0.205,0.104S196.258,27.335,196.281,27.422z"
		/>
	<path fill="#46B8A9" d="M203.944,33.09c-0.016-0.087-0.027-0.158-0.035-0.215s-0.02-0.128-0.035-0.215
		c-0.07,0.113-0.147,0.226-0.233,0.338c-0.086,0.113-0.188,0.211-0.305,0.293s-0.254,0.149-0.41,0.201
		c-0.155,0.052-0.343,0.078-0.561,0.078h-0.023c-0.414,0-0.794-0.084-1.141-0.253c-0.348-0.17-0.646-0.403-0.896-0.702
		c-0.25-0.299-0.444-0.648-0.585-1.047s-0.211-0.832-0.211-1.3s0.068-0.903,0.205-1.307s0.329-0.752,0.579-1.047
		c0.249-0.294,0.548-0.526,0.896-0.695c0.347-0.169,0.73-0.253,1.152-0.253c0.413,0,0.734,0.091,0.965,0.272
		c0.23,0.183,0.435,0.398,0.614,0.65l0.117-0.494c0.03-0.147,0.065-0.245,0.104-0.293c0.039-0.047,0.113-0.071,0.223-0.071
		l0.655,0.026c0.086,0,0.164,0.032,0.234,0.098c0.069,0.064,0.104,0.149,0.104,0.253v5.707c0,0.104-0.035,0.185-0.104,0.24
		c-0.07,0.057-0.148,0.085-0.234,0.085h-0.749c-0.117,0-0.197-0.032-0.239-0.098C203.989,33.278,203.96,33.193,203.944,33.09z
		 M201.031,30.281c0,0.243,0.033,0.468,0.1,0.676s0.161,0.391,0.286,0.547c0.125,0.155,0.272,0.277,0.444,0.363
		c0.172,0.087,0.363,0.13,0.574,0.13c0.436,0,0.781-0.162,1.035-0.487c0.253-0.325,0.38-0.729,0.38-1.216
		c0-0.233-0.031-0.457-0.093-0.669c-0.063-0.212-0.156-0.398-0.281-0.559c-0.125-0.161-0.273-0.286-0.445-0.378
		c-0.172-0.091-0.37-0.136-0.596-0.136c-0.211,0-0.404,0.045-0.58,0.136c-0.176,0.092-0.323,0.217-0.444,0.378
		c-0.121,0.16-0.214,0.344-0.28,0.552S201.031,30.048,201.031,30.281z"/>
	<path fill="#46B8A9" d="M207.841,27.058c0.116,0,0.204,0.021,0.263,0.064c0.059,0.044,0.104,0.104,0.135,0.183
		s0.055,0.167,0.07,0.267s0.035,0.206,0.059,0.318c0.18-0.226,0.422-0.434,0.726-0.624s0.647-0.286,1.029-0.286
		c0.366,0,0.69,0.064,0.972,0.195c0.28,0.13,0.518,0.308,0.713,0.532c0.195,0.226,0.344,0.497,0.445,0.813
		c0.102,0.316,0.152,0.661,0.152,1.034v3.575c0,0.121-0.023,0.203-0.07,0.246c-0.047,0.044-0.117,0.065-0.211,0.065h-1.076
		c-0.125,0-0.201-0.02-0.229-0.059s-0.041-0.119-0.041-0.24v-3.289c0-0.355-0.102-0.639-0.305-0.852
		c-0.203-0.212-0.455-0.318-0.76-0.318c-0.125,0-0.256,0.03-0.393,0.091s-0.263,0.141-0.38,0.24s-0.216,0.219-0.298,0.357
		s-0.135,0.286-0.158,0.442v3.341c0,0.113-0.02,0.188-0.059,0.228s-0.117,0.059-0.234,0.059h-1.053
		c-0.117,0-0.193-0.021-0.229-0.065c-0.035-0.043-0.053-0.116-0.053-0.221v-5.707c0-0.26,0.117-0.39,0.352-0.39H207.841z"/>
	<path fill="#46B8A9" d="M216.58,31.972c0.234-0.009,0.438-0.048,0.609-0.117c0.171-0.069,0.351-0.151,0.537-0.247
		c0.078-0.043,0.133-0.065,0.164-0.065c0.055,0,0.113,0.048,0.176,0.144l0.503,0.802c0.031,0.068,0.047,0.116,0.047,0.142
		c0,0.077-0.023,0.138-0.07,0.181s-0.089,0.082-0.128,0.116c-0.258,0.189-0.539,0.346-0.843,0.471s-0.624,0.187-0.96,0.187
		c-0.413,0-0.801-0.086-1.164-0.26c-0.362-0.173-0.68-0.409-0.953-0.708s-0.488-0.65-0.644-1.054
		c-0.156-0.402-0.233-0.834-0.233-1.293s0.077-0.893,0.233-1.3c0.155-0.407,0.37-0.763,0.644-1.066
		c0.273-0.303,0.591-0.541,0.953-0.715c0.363-0.173,0.751-0.26,1.164-0.26c0.32,0,0.621,0.057,0.901,0.169s0.562,0.269,0.843,0.468
		h-0.012c0.063,0.043,0.112,0.091,0.151,0.143c0.039,0.053,0.059,0.113,0.059,0.183c0,0.018-0.002,0.041-0.006,0.071
		s-0.014,0.055-0.029,0.071l-0.456,0.871c-0.016,0.035-0.041,0.065-0.076,0.091c-0.035,0.026-0.072,0.039-0.111,0.039
		c-0.031,0-0.094-0.03-0.188-0.091c-0.133-0.121-0.296-0.219-0.49-0.292c-0.195-0.074-0.387-0.111-0.574-0.111
		c-0.219,0-0.421,0.048-0.607,0.144c-0.188,0.096-0.35,0.225-0.486,0.386c-0.137,0.16-0.244,0.348-0.322,0.561
		s-0.116,0.438-0.116,0.672c0,0.496,0.142,0.898,0.427,1.208C215.807,31.817,216.159,31.972,216.58,31.972z"/>
	<path fill="#46B8A9" d="M222.453,32.05c0.172,0.009,0.34-0.018,0.504-0.078c0.163-0.061,0.323-0.139,0.479-0.234
		c0.063-0.034,0.121-0.073,0.176-0.117c0.055-0.043,0.105-0.064,0.152-0.064c0.07,0,0.129,0.039,0.176,0.117l0.433,0.767
		c0.039,0.069,0.059,0.126,0.059,0.169c0,0.069-0.02,0.128-0.059,0.176s-0.081,0.093-0.128,0.137
		c-0.25,0.208-0.521,0.372-0.814,0.493c-0.292,0.122-0.605,0.183-0.941,0.183c-0.405,0-0.789-0.087-1.152-0.26
		c-0.363-0.174-0.678-0.41-0.947-0.709s-0.484-0.652-0.644-1.06c-0.16-0.407-0.24-0.841-0.24-1.3c0-0.45,0.078-0.878,0.234-1.28
		c0.155-0.403,0.366-0.759,0.632-1.066c0.265-0.308,0.573-0.55,0.924-0.728c0.352-0.178,0.726-0.267,1.123-0.267
		c0.375,0,0.729,0.078,1.064,0.233c0.336,0.156,0.631,0.369,0.884,0.638s0.452,0.583,0.597,0.942s0.217,0.743,0.217,1.15
		c0,0.338-0.025,0.583-0.076,0.734s-0.162,0.228-0.334,0.228h-3.639c0.016,0.19,0.066,0.359,0.152,0.507s0.191,0.273,0.316,0.377
		c0.125,0.104,0.264,0.182,0.415,0.234C222.167,32.023,222.313,32.05,222.453,32.05z M221.131,29.593h2.516
		c-0.016-0.326-0.143-0.604-0.38-0.836c-0.238-0.231-0.532-0.348-0.884-0.348c-0.141,0-0.28,0.03-0.421,0.09
		c-0.14,0.061-0.269,0.144-0.386,0.251s-0.215,0.233-0.293,0.38C221.205,29.275,221.154,29.43,221.131,29.593z"/>
</g>
<g>
	<path fill="#46B8A9" d="M172.355,47.972c-0.063-0.078-0.109-0.156-0.141-0.234s-0.004-0.164,0.082-0.26l0.783-0.858
		c0.07-0.069,0.139-0.093,0.205-0.071s0.135,0.067,0.205,0.137c0.116,0.13,0.247,0.262,0.391,0.396
		c0.145,0.135,0.301,0.256,0.469,0.364s0.35,0.194,0.544,0.26c0.194,0.064,0.401,0.098,0.62,0.098c0.234,0,0.44-0.035,0.62-0.104
		c0.179-0.069,0.333-0.162,0.462-0.279s0.227-0.251,0.293-0.403c0.066-0.151,0.1-0.31,0.1-0.475c0-0.208-0.057-0.383-0.17-0.526
		c-0.113-0.143-0.252-0.264-0.416-0.363c-0.163-0.1-0.341-0.183-0.531-0.247c-0.191-0.065-0.365-0.119-0.521-0.163
		c-0.943-0.312-1.663-0.695-2.158-1.15c-0.496-0.455-0.743-1.051-0.743-1.787c0-0.398,0.076-0.763,0.228-1.092
		c0.152-0.33,0.367-0.613,0.645-0.852c0.276-0.238,0.609-0.423,1-0.553s0.818-0.195,1.287-0.195c0.515,0,1.008,0.135,1.48,0.403
		c0.471,0.269,0.883,0.598,1.234,0.988c0.14,0.164,0.136,0.333-0.012,0.507l-0.645,0.767c-0.078,0.078-0.151,0.103-0.222,0.071
		c-0.07-0.03-0.145-0.08-0.222-0.149c-0.094-0.086-0.201-0.182-0.322-0.286c-0.121-0.104-0.254-0.201-0.398-0.292
		s-0.296-0.167-0.456-0.228c-0.159-0.061-0.325-0.091-0.497-0.091c-0.148,0-0.303,0.013-0.462,0.039
		c-0.16,0.025-0.304,0.075-0.433,0.149c-0.129,0.073-0.236,0.178-0.322,0.312c-0.086,0.135-0.129,0.314-0.129,0.54
		c0,0.164,0.041,0.308,0.123,0.429s0.199,0.228,0.352,0.318c0.151,0.091,0.331,0.176,0.537,0.254
		c0.207,0.078,0.436,0.155,0.686,0.233c0.397,0.13,0.771,0.275,1.123,0.436c0.351,0.161,0.656,0.357,0.918,0.592
		s0.47,0.512,0.626,0.832c0.155,0.32,0.233,0.706,0.233,1.157c0,0.45-0.089,0.86-0.269,1.229c-0.179,0.368-0.419,0.683-0.72,0.942
		s-0.647,0.459-1.041,0.598c-0.395,0.139-0.801,0.208-1.223,0.208c-0.608,0-1.193-0.147-1.755-0.441
		C173.232,48.834,172.752,48.448,172.355,47.972z"/>
	<path fill="#46B8A9" d="M182.475,48.05c0.172,0.009,0.34-0.018,0.504-0.078c0.163-0.061,0.323-0.139,0.479-0.234
		c0.063-0.034,0.121-0.073,0.176-0.117c0.055-0.043,0.105-0.064,0.152-0.064c0.07,0,0.129,0.039,0.176,0.117l0.433,0.767
		c0.039,0.069,0.059,0.126,0.059,0.169c0,0.069-0.02,0.128-0.059,0.176s-0.081,0.093-0.128,0.137
		c-0.25,0.208-0.521,0.372-0.814,0.493c-0.292,0.122-0.605,0.183-0.941,0.183c-0.405,0-0.789-0.087-1.152-0.26
		c-0.363-0.174-0.678-0.41-0.947-0.709s-0.484-0.652-0.644-1.06c-0.16-0.407-0.24-0.841-0.24-1.3c0-0.45,0.078-0.878,0.234-1.28
		c0.155-0.403,0.366-0.759,0.632-1.066c0.265-0.308,0.573-0.55,0.924-0.728c0.352-0.178,0.726-0.267,1.123-0.267
		c0.375,0,0.729,0.078,1.064,0.233c0.336,0.156,0.631,0.369,0.884,0.638s0.452,0.583,0.597,0.942s0.217,0.743,0.217,1.15
		c0,0.338-0.025,0.583-0.076,0.734s-0.162,0.228-0.334,0.228h-3.639c0.016,0.19,0.066,0.359,0.152,0.507s0.191,0.273,0.316,0.377
		c0.125,0.104,0.264,0.182,0.415,0.234C182.188,48.023,182.334,48.05,182.475,48.05z M181.152,45.593h2.516
		c-0.016-0.326-0.143-0.604-0.38-0.836c-0.238-0.231-0.532-0.348-0.884-0.348c-0.141,0-0.28,0.03-0.421,0.09
		c-0.14,0.061-0.269,0.144-0.386,0.251s-0.215,0.233-0.293,0.38C181.227,45.275,181.176,45.43,181.152,45.593z"/>
	<path fill="#46B8A9" d="M187.834,43.422c0.008,0.043,0.027,0.128,0.059,0.253c0.031,0.126,0.051,0.21,0.059,0.254
		c0.07-0.104,0.154-0.213,0.252-0.325c0.097-0.112,0.208-0.215,0.332-0.306c0.125-0.091,0.26-0.167,0.404-0.228
		s0.303-0.091,0.475-0.091c0.038,0,0.075,0,0.11,0s0.072,0.005,0.111,0.013c0.108,0.009,0.233,0.041,0.374,0.098
		s0.273,0.121,0.398,0.195c0.125,0.073,0.229,0.151,0.315,0.233c0.086,0.083,0.129,0.158,0.129,0.228
		c0,0.053-0.02,0.113-0.059,0.183l-0.468,0.845c-0.07,0.121-0.152,0.182-0.246,0.182c-0.031,0-0.078-0.015-0.141-0.045
		s-0.129-0.067-0.199-0.11c-0.108-0.087-0.204-0.147-0.286-0.183c-0.081-0.034-0.177-0.052-0.286-0.052
		c-0.172,0-0.326,0.037-0.463,0.11c-0.137,0.074-0.251,0.171-0.345,0.293c-0.094,0.121-0.166,0.258-0.216,0.409
		c-0.051,0.151-0.076,0.301-0.076,0.448v3.289c0,0.217-0.105,0.325-0.316,0.325h-0.971c-0.203,0-0.305-0.108-0.305-0.325v-5.693
		c0-0.113,0.031-0.197,0.094-0.254s0.133-0.085,0.211-0.085h0.748c0.094,0,0.162,0.035,0.205,0.104S187.811,43.335,187.834,43.422z"
		/>
	<path fill="#46B8A9" d="M193.006,43.356l1.158,3.588l1.146-3.601c0.078-0.19,0.21-0.286,0.397-0.286h1.041
		c0.211,0,0.315,0.1,0.315,0.299c0,0.035-0.006,0.069-0.018,0.104c-0.012,0.035-0.018,0.057-0.018,0.065l-2.023,5.512
		c-0.039,0.104-0.092,0.197-0.158,0.28c-0.066,0.082-0.15,0.123-0.252,0.123h-0.865c-0.141,0-0.242-0.057-0.305-0.169
		s-0.116-0.234-0.163-0.364l-0.96-2.626c-0.163-0.441-0.329-0.896-0.496-1.365c-0.168-0.468-0.334-0.914-0.498-1.339
		c-0.008-0.025-0.018-0.063-0.029-0.11s-0.018-0.089-0.018-0.123c0-0.19,0.102-0.286,0.305-0.286h1.064
		C192.818,43.058,192.943,43.157,193.006,43.356z"/>
	<path fill="#46B8A9" d="M197.849,41.159c0-0.277,0.087-0.514,0.263-0.708c0.176-0.195,0.389-0.293,0.639-0.293
		c0.257,0,0.471,0.098,0.643,0.293c0.172,0.194,0.258,0.431,0.258,0.708s-0.086,0.512-0.258,0.702s-0.386,0.286-0.643,0.286
		c-0.25,0-0.463-0.096-0.639-0.286S197.849,41.437,197.849,41.159z M199.58,43.369v5.772c0,0.199-0.098,0.299-0.293,0.299h-1.018
		c-0.18,0-0.27-0.1-0.27-0.299v-5.772c0-0.095,0.023-0.171,0.07-0.228c0.047-0.056,0.113-0.084,0.199-0.084h1.018
		c0.07,0,0.137,0.028,0.199,0.084C199.549,43.198,199.58,43.274,199.58,43.369z"/>
	<path fill="#46B8A9" d="M203.862,47.972c0.233-0.009,0.437-0.048,0.608-0.117s0.352-0.151,0.538-0.247
		c0.078-0.043,0.132-0.065,0.163-0.065c0.055,0,0.113,0.048,0.176,0.144l0.504,0.802c0.031,0.068,0.047,0.116,0.047,0.142
		c0,0.077-0.023,0.138-0.07,0.181s-0.09,0.082-0.129,0.116c-0.258,0.189-0.538,0.346-0.842,0.471
		c-0.305,0.125-0.625,0.187-0.96,0.187c-0.413,0-0.802-0.086-1.165-0.26c-0.361-0.173-0.68-0.409-0.953-0.708
		s-0.487-0.65-0.643-1.054c-0.156-0.402-0.234-0.834-0.234-1.293s0.078-0.893,0.234-1.3c0.155-0.407,0.369-0.763,0.643-1.066
		c0.273-0.303,0.592-0.541,0.953-0.715c0.363-0.173,0.752-0.26,1.165-0.26c0.319,0,0.62,0.057,0.901,0.169
		c0.28,0.112,0.561,0.269,0.842,0.468h-0.012c0.063,0.043,0.113,0.091,0.152,0.143c0.039,0.053,0.059,0.113,0.059,0.183
		c0,0.018-0.002,0.041-0.006,0.071s-0.014,0.055-0.029,0.071l-0.457,0.871c-0.016,0.035-0.041,0.065-0.076,0.091
		c-0.035,0.026-0.072,0.039-0.11,0.039c-0.031,0-0.094-0.03-0.188-0.091c-0.133-0.121-0.296-0.219-0.491-0.292
		c-0.195-0.074-0.387-0.111-0.573-0.111c-0.219,0-0.421,0.048-0.608,0.144s-0.35,0.225-0.486,0.386
		c-0.136,0.16-0.243,0.348-0.321,0.561s-0.116,0.438-0.116,0.672c0,0.496,0.142,0.898,0.426,1.208
		C203.088,47.817,203.441,47.972,203.862,47.972z"/>
	<path fill="#46B8A9" d="M209.748,48.05c0.171,0.009,0.339-0.018,0.502-0.078c0.164-0.061,0.324-0.139,0.48-0.234
		c0.063-0.034,0.121-0.073,0.176-0.117c0.054-0.043,0.104-0.064,0.151-0.064c0.07,0,0.129,0.039,0.176,0.117l0.433,0.767
		c0.039,0.069,0.059,0.126,0.059,0.169c0,0.069-0.02,0.128-0.059,0.176s-0.082,0.093-0.129,0.137
		c-0.25,0.208-0.521,0.372-0.813,0.493c-0.293,0.122-0.607,0.183-0.941,0.183c-0.406,0-0.791-0.087-1.153-0.26
		c-0.362-0.174-0.679-0.41-0.948-0.709c-0.269-0.299-0.482-0.652-0.643-1.06s-0.24-0.841-0.24-1.3c0-0.45,0.078-0.878,0.234-1.28
		c0.156-0.403,0.366-0.759,0.631-1.066c0.266-0.308,0.574-0.55,0.925-0.728s0.726-0.267,1.124-0.267
		c0.374,0,0.729,0.078,1.064,0.233c0.335,0.156,0.629,0.369,0.883,0.638s0.453,0.583,0.597,0.942
		c0.145,0.359,0.217,0.743,0.217,1.15c0,0.338-0.025,0.583-0.076,0.734s-0.162,0.228-0.333,0.228h-3.639
		c0.016,0.19,0.066,0.359,0.151,0.507c0.086,0.147,0.191,0.273,0.315,0.377c0.125,0.104,0.264,0.182,0.416,0.234
		C209.461,48.023,209.607,48.05,209.748,48.05z M208.426,45.593h2.516c-0.016-0.326-0.143-0.604-0.381-0.836
		s-0.532-0.348-0.883-0.348c-0.141,0-0.281,0.03-0.422,0.09c-0.141,0.061-0.27,0.144-0.386,0.251
		c-0.117,0.107-0.215,0.233-0.293,0.38C208.5,45.275,208.449,45.43,208.426,45.593z"/>
	<path fill="#46B8A9" d="M213.176,48.335c-0.016-0.025-0.023-0.068-0.023-0.13c0-0.025,0.004-0.056,0.012-0.091
		c0.008-0.034,0.031-0.064,0.07-0.091l0.713-0.637c0.023-0.044,0.066-0.065,0.129-0.065c0.047,0,0.109,0.03,0.188,0.091
		c0.148,0.139,0.315,0.291,0.503,0.455c0.187,0.165,0.401,0.247,0.644,0.247c0.266,0,0.446-0.063,0.544-0.188
		c0.098-0.125,0.146-0.271,0.146-0.436c0-0.095-0.034-0.18-0.104-0.253c-0.07-0.074-0.152-0.142-0.245-0.202
		c-0.094-0.061-0.189-0.11-0.287-0.149s-0.178-0.066-0.24-0.084c-0.687-0.199-1.18-0.457-1.48-0.773
		c-0.3-0.316-0.449-0.73-0.449-1.242c0-0.251,0.053-0.487,0.157-0.708c0.105-0.222,0.253-0.416,0.444-0.585s0.422-0.304,0.69-0.403
		c0.27-0.1,0.567-0.149,0.896-0.149c0.39,0,0.74,0.071,1.053,0.215c0.313,0.143,0.585,0.331,0.818,0.565
		c0.141,0.155,0.211,0.286,0.211,0.39c0,0.035-0.043,0.1-0.129,0.195s-0.181,0.19-0.286,0.286c-0.105,0.095-0.206,0.18-0.304,0.253
		c-0.098,0.074-0.162,0.11-0.193,0.11c-0.063,0-0.129-0.039-0.199-0.116c-0.109-0.104-0.238-0.206-0.386-0.306
		c-0.148-0.1-0.335-0.149-0.562-0.149c-0.148,0-0.287,0.03-0.416,0.091s-0.193,0.173-0.193,0.338c0,0.156,0.08,0.279,0.24,0.37
		c0.16,0.092,0.381,0.185,0.661,0.28c0.296,0.112,0.567,0.231,0.813,0.357c0.246,0.125,0.454,0.271,0.626,0.436
		c0.171,0.164,0.304,0.353,0.397,0.565c0.094,0.212,0.141,0.461,0.141,0.747c0,0.329-0.064,0.622-0.193,0.878
		s-0.303,0.468-0.521,0.637s-0.47,0.297-0.755,0.384c-0.285,0.086-0.578,0.13-0.883,0.13c-0.414,0-0.8-0.083-1.158-0.247
		c-0.359-0.165-0.663-0.398-0.912-0.702C213.266,48.535,213.207,48.431,213.176,48.335z"/>
</g>
</svg>
